<svg width="1060" height="608" viewBox="0 0 1060 608" fill="none" xmlns="http://www.w3.org/2000/svg">
<path d="M596.5 569C645 569 711.5 477 793.5 427.5C844 427.5 946.833 536.5 986.5 539C1051.5 524 1033.2 220.7 1030 151.5C1026.8 82.3 986.5 25.5 927.5 25.5C853 25.5 793.5 95 766 124C696.5 83.5 675.5 25.5 596.5 25.5C517.5 25.5 515.718 95.2999 494.5 168.5M596.5 569C571.3 531 529.249 345.55 503.5 254C494.5 222 494.5 168.5 494.5 168.5M596.5 569C340.5 569 303.5 600.5 157.5 569C25.0309 540.419 -22.4999 412 84 360.5C226.288 291.694 115.5 258 249.5 183C292.5 158.933 447.5 151.5 494.5 168.5" stroke="white" stroke-width="50"/>
</svg>
